<svg width="32" height="32" viewBox="0 0 32 32" fill="none" xmlns="http://www.w3.org/2000/svg">
<rect width="32" height="32" rx="16" fill="#C74634"/>
<path fill-rule="evenodd" clip-rule="evenodd" d="M4.93994 16C4.93994 19.8654 8.07174 23 11.9357 23H20.0641C21.92 22.9993 23.6997 22.2614 25.0116 20.9487C26.3235 19.636 27.0603 17.8559 27.0599 16C27.0599 12.1346 23.9281 9 20.0641 9H11.9357C10.0798 9.00074 8.30023 9.73861 6.9883 11.0513C5.67637 12.364 4.93957 14.1441 4.93994 16ZM24.4153 16C24.4157 16.5949 24.2989 17.184 24.0715 17.7337C23.8442 18.2834 23.5108 18.783 23.0903 19.2038C22.6699 19.6246 22.1706 19.9585 21.6211 20.1864C21.0716 20.4142 20.4826 20.5316 19.8877 20.5318H12.1177C11.5226 20.532 10.9333 20.4149 10.3835 20.1872C9.83366 19.9595 9.3341 19.6257 8.91336 19.2048C8.49262 18.7839 8.15895 18.2843 7.93142 17.7344C7.70389 17.1845 7.58697 16.5951 7.58734 16C7.58716 15.4052 7.70412 14.8163 7.93156 14.2667C8.15899 13.7172 8.49244 13.2178 8.91287 12.7971C9.33329 12.3764 9.83246 12.0427 10.3819 11.8149C10.9313 11.5871 11.5202 11.4698 12.1149 11.4696H19.8863C20.4812 11.4696 21.0703 11.5868 21.6198 11.8145C22.1694 12.0422 22.6687 12.3759 23.0893 12.7966C23.5099 13.2173 23.8435 13.7168 24.071 14.2664C24.2985 14.816 24.4155 15.4051 24.4153 16Z" fill="white"/>
</svg>
