<svg width="32" height="32" viewBox="0 0 32 32" fill="none" xmlns="http://www.w3.org/2000/svg">
<rect width="32" height="32" rx="16" fill="#262E3B"/>
<path d="M22.432 18.3866C23.1438 18.2999 24.7135 18.1133 24.993 18.4732C25.2723 18.8266 24.6804 20.3132 24.4143 20.9731C24.3345 21.1732 24.5074 21.2531 24.687 21.0999C25.8577 20.1132 26.1637 18.0532 25.9243 17.7532C25.6847 17.46 23.6294 17.2066 22.3788 18.0866C22.1859 18.2265 22.2192 18.4132 22.432 18.3866Z" fill="#FF9900"/>
<path d="M15.9798 21.9931C18.7137 21.9931 21.8932 21.133 24.0817 19.5131C24.4408 19.2465 24.1282 18.8399 23.7623 19.0065C21.3078 20.0464 18.6405 20.5532 16.2126 20.5532C12.614 20.5532 9.13511 19.5599 6.31491 17.92C6.06861 17.7733 5.88244 18.0266 6.08856 18.2133C8.69617 20.5731 12.1484 21.9931 15.9798 21.9931Z" fill="#FF9900"/>
<path d="M11.6362 14.3602C11.6362 14.6069 11.6628 14.8068 11.7093 14.9535C11.7684 15.1185 11.8396 15.2789 11.9223 15.4334C11.9555 15.4868 11.9688 15.5402 11.9688 15.5868C11.9688 15.6536 11.9289 15.7203 11.8424 15.7869L11.4234 16.0669C11.3635 16.1068 11.3035 16.1269 11.2504 16.1269C11.1838 16.1269 11.1174 16.0935 11.0509 16.0335C10.9612 15.9369 10.881 15.832 10.8113 15.7202C10.737 15.5921 10.6682 15.4608 10.6051 15.3268C10.0863 15.9402 9.4344 16.2469 8.64954 16.2469C8.09076 16.2469 7.64522 16.0868 7.31925 15.7669C6.99328 15.4469 6.82692 15.0201 6.82692 14.4869C6.82692 13.9201 7.02644 13.4602 7.43222 13.1136C7.83799 12.7668 8.37682 12.5936 9.06206 12.5936C9.28813 12.5936 9.52095 12.6135 9.76711 12.6468C10.0131 12.6803 10.2659 12.7335 10.532 12.7935V12.3069C10.532 11.8002 10.4255 11.4469 10.2193 11.2402C10.0065 11.0336 9.64727 10.9337 9.13513 10.9337C8.90231 10.9337 8.66289 10.9602 8.41673 11.0202C8.17218 11.0786 7.9321 11.1544 7.69833 11.247C7.62269 11.2809 7.54492 11.3098 7.46551 11.3336C7.41901 11.3469 7.38571 11.3536 7.35902 11.3536C7.266 11.3536 7.21935 11.287 7.21935 11.1469V10.8203C7.21935 10.7136 7.23283 10.6336 7.266 10.5871C7.29916 10.5403 7.35902 10.4936 7.45217 10.4468C7.68498 10.3269 7.96444 10.227 8.29028 10.1469C8.61625 10.0603 8.9623 10.0202 9.32804 10.0202C10.1196 10.0202 10.6982 10.2003 11.0707 10.5602C11.4366 10.9202 11.6229 11.467 11.6229 12.2002V14.3602H11.6362ZM8.93561 15.3736C9.15508 15.3736 9.38129 15.3335 9.62071 15.2536C9.86013 15.1735 10.073 15.0268 10.2526 14.8269C10.3591 14.7002 10.4389 14.5602 10.4788 14.4002C10.5187 14.2402 10.5452 14.0469 10.5452 13.8203V13.5402C10.3435 13.4911 10.1393 13.4533 9.93333 13.427C9.72596 13.4006 9.51714 13.3871 9.30809 13.3868C8.86241 13.3868 8.53644 13.4735 8.31697 13.6535C8.0975 13.8336 7.991 14.0869 7.991 14.4202C7.991 14.7335 8.07081 14.9668 8.23716 15.1268C8.39678 15.2935 8.62973 15.3736 8.93561 15.3736ZM14.2769 16.0935C14.1572 16.0935 14.0774 16.0735 14.0241 16.0269C13.971 15.9868 13.9244 15.8934 13.8845 15.7668L12.3213 10.6136C12.2814 10.4801 12.2615 10.3936 12.2615 10.347C12.2615 10.2403 12.3146 10.1803 12.4211 10.1803H13.0729C13.1994 10.1803 13.2859 10.2003 13.3324 10.2469C13.3857 10.287 13.4254 10.3804 13.4655 10.507L14.583 14.9202L15.6207 10.507C15.6538 10.3735 15.6937 10.287 15.747 10.2469C15.8002 10.2069 15.8932 10.1803 16.0131 10.1803H16.5452C16.6716 10.1803 16.758 10.2003 16.8113 10.2469C16.8645 10.287 16.9111 10.3804 16.9376 10.507L17.9886 14.9736L19.1394 10.507C19.1792 10.3735 19.2257 10.287 19.2724 10.2469C19.3256 10.2069 19.412 10.1803 19.5319 10.1803H20.1504C20.2569 10.1803 20.3167 10.2336 20.3167 10.347C20.3167 10.3803 20.3101 10.4136 20.3034 10.4536C20.293 10.5104 20.2774 10.5662 20.2569 10.6202L18.6539 15.7737C18.6138 15.907 18.5673 15.9936 18.5141 16.0336C18.461 16.0736 18.3744 16.1003 18.2613 16.1003H17.6893C17.5629 16.1003 17.4763 16.0802 17.4232 16.0336C17.3701 15.987 17.3234 15.9003 17.2969 15.7669L16.2659 11.4671L15.2414 15.7603C15.2081 15.8937 15.1682 15.9803 15.115 16.027C15.0619 16.0736 14.9687 16.0936 14.849 16.0936L14.2769 16.0935ZM22.8245 16.2736C22.4785 16.2736 22.1326 16.2335 21.8 16.1536C21.4675 16.0735 21.2081 15.9868 21.0351 15.8868C20.9286 15.8268 20.8556 15.7601 20.8289 15.7002C20.803 15.6413 20.7894 15.5778 20.789 15.5135V15.1735C20.789 15.0336 20.8422 14.9668 20.942 14.9668C20.9819 14.9668 21.0218 14.9736 21.0617 14.9868C21.1016 15.0003 21.1614 15.0268 21.228 15.0535C21.463 15.157 21.7083 15.2352 21.9598 15.2867C22.2258 15.3401 22.4853 15.3668 22.7513 15.3668C23.1704 15.3668 23.4963 15.2935 23.7224 15.1468C23.9486 15.0001 24.0683 14.7869 24.0683 14.5135C24.0683 14.3269 24.0085 14.1736 23.8888 14.0469C23.7691 13.9201 23.5429 13.8069 23.2169 13.7003L22.2525 13.4002C21.7669 13.2469 21.4076 13.0203 21.1881 12.7202C20.9687 12.4268 20.8556 12.1002 20.8556 11.7536C20.8556 11.4736 20.9154 11.2269 21.0351 11.0136C21.1548 10.8003 21.3145 10.6136 21.5141 10.4669C21.7136 10.3137 21.9397 10.2003 22.2058 10.1203C22.4719 10.0403 22.7513 10.007 23.0439 10.007C23.1903 10.007 23.3433 10.0137 23.4896 10.0337C23.6426 10.0536 23.7823 10.0803 23.9219 10.107C24.055 10.1403 24.1814 10.1736 24.3012 10.2135C24.4209 10.2537 24.514 10.2936 24.5805 10.3336C24.6736 10.387 24.7402 10.4402 24.7801 10.5002C24.82 10.5536 24.84 10.627 24.84 10.7202V11.0337C24.84 11.1738 24.7867 11.2471 24.687 11.2471C24.6337 11.2471 24.5473 11.2204 24.4342 11.167C24.055 10.9938 23.6293 10.9071 23.157 10.9071C22.7779 10.9071 22.4785 10.9671 22.2724 11.0937C22.0662 11.2204 21.9598 11.4137 21.9598 11.6871C21.9598 11.8737 22.0263 12.0336 22.1593 12.1603C22.2924 12.287 22.5384 12.4138 22.8909 12.527L23.8355 12.8271C24.3145 12.9804 24.6603 13.1938 24.8665 13.467C25.0728 13.7403 25.1726 14.0536 25.1726 14.4003C25.1726 14.687 25.1127 14.947 24.9996 15.1736C24.8799 15.4002 24.7203 15.6003 24.514 15.7603C24.3078 15.927 24.0617 16.0469 23.7757 16.1336C23.4764 16.2269 23.1636 16.2736 22.8245 16.2736Z" fill="white"/>
</svg>
