<svg width="38" height="38" viewBox="0 0 38 38" fill="none" xmlns="http://www.w3.org/2000/svg">
<g filter="url(#filter0_ddi_620_46672)">
<path d="M3 18C3 9.16344 10.1634 2 19 2C27.8366 2 35 9.16344 35 18C35 26.8366 27.8366 34 19 34C10.1634 34 3 26.8366 3 18Z" fill="#D50C2E" shape-rendering="crispEdges"/>
<g filter="url(#filter1_d_620_46672)">
<g clip-path="url(#clip0_620_46672)">
<path d="M27 30C27 27.7909 28.7909 26 31 26C33.2091 26 35 27.7909 35 30C35 32.2091 33.2091 34 31 34C28.7909 34 27 32.2091 27 30Z" fill="white"/>
<circle cx="31" cy="30" r="3.55556" fill="#137949"/>
</g>
</g>
<path d="M24.4647 12H22.8163C22.4452 12 22.2862 12.1564 22.2862 12.5393V16.7838H15.7191V12.5393C15.7191 12.1618 15.5654 12 15.189 12H13.53C13.1537 12 13 12.1564 13 12.5393V23.4607C13 23.8436 13.1537 24 13.53 24H15.189C15.5601 24 15.7191 23.849 15.7191 23.4607V19.1461H22.2915V23.4607C22.2915 23.8382 22.4452 24 22.8216 24H24.47C24.841 24 25 23.8436 25 23.4607V12.5393C24.9894 12.1726 24.8357 12 24.4647 12Z" fill="white"/>
</g>
<defs>
<filter id="filter0_ddi_620_46672" x="0" y="0" width="38" height="38" filterUnits="userSpaceOnUse" color-interpolation-filters="sRGB">
<feFlood flood-opacity="0" result="BackgroundImageFix"/>
<feColorMatrix in="SourceAlpha" type="matrix" values="0 0 0 0 0 0 0 0 0 0 0 0 0 0 0 0 0 0 127 0" result="hardAlpha"/>
<feOffset dy="1"/>
<feGaussianBlur stdDeviation="1.5"/>
<feComposite in2="hardAlpha" operator="out"/>
<feColorMatrix type="matrix" values="0 0 0 0 0 0 0 0 0 0 0 0 0 0 0 0 0 0 0.14 0"/>
<feBlend mode="normal" in2="BackgroundImageFix" result="effect1_dropShadow_620_46672"/>
<feColorMatrix in="SourceAlpha" type="matrix" values="0 0 0 0 0 0 0 0 0 0 0 0 0 0 0 0 0 0 127 0" result="hardAlpha"/>
<feOffset/>
<feGaussianBlur stdDeviation="0.5"/>
<feComposite in2="hardAlpha" operator="out"/>
<feColorMatrix type="matrix" values="0 0 0 0 0 0 0 0 0 0 0 0 0 0 0 0 0 0 0.14 0"/>
<feBlend mode="normal" in2="effect1_dropShadow_620_46672" result="effect2_dropShadow_620_46672"/>
<feBlend mode="normal" in="SourceGraphic" in2="effect2_dropShadow_620_46672" result="shape"/>
<feColorMatrix in="SourceAlpha" type="matrix" values="0 0 0 0 0 0 0 0 0 0 0 0 0 0 0 0 0 0 127 0" result="hardAlpha"/>
<feOffset dy="0.25"/>
<feGaussianBlur stdDeviation="0.75"/>
<feComposite in2="hardAlpha" operator="arithmetic" k2="-1" k3="1"/>
<feColorMatrix type="matrix" values="0 0 0 0 1 0 0 0 0 1 0 0 0 0 1 0 0 0 0.08 0"/>
<feBlend mode="normal" in2="shape" result="effect3_innerShadow_620_46672"/>
</filter>
<filter id="filter1_d_620_46672" x="25" y="24" width="12" height="12" filterUnits="userSpaceOnUse" color-interpolation-filters="sRGB">
<feFlood flood-opacity="0" result="BackgroundImageFix"/>
<feColorMatrix in="SourceAlpha" type="matrix" values="0 0 0 0 0 0 0 0 0 0 0 0 0 0 0 0 0 0 127 0" result="hardAlpha"/>
<feMorphology radius="2" operator="dilate" in="SourceAlpha" result="effect1_dropShadow_620_46672"/>
<feOffset/>
<feComposite in2="hardAlpha" operator="out"/>
<feColorMatrix type="matrix" values="0 0 0 0 1 0 0 0 0 1 0 0 0 0 1 0 0 0 1 0"/>
<feBlend mode="normal" in2="BackgroundImageFix" result="effect1_dropShadow_620_46672"/>
<feBlend mode="normal" in="SourceGraphic" in2="effect1_dropShadow_620_46672" result="shape"/>
</filter>
<clipPath id="clip0_620_46672">
<path d="M27 30C27 27.7909 28.7909 26 31 26C33.2091 26 35 27.7909 35 30C35 32.2091 33.2091 34 31 34C28.7909 34 27 32.2091 27 30Z" fill="white"/>
</clipPath>
</defs>
</svg>
