<svg width="38" height="38" viewBox="0 0 38 38" fill="none" xmlns="http://www.w3.org/2000/svg">
<g filter="url(#filter0_ddi_815_6816)">
<path d="M3 18C3 9.16344 10.1634 2 19 2V2C27.8366 2 35 9.16344 35 18V18C35 26.8366 27.8366 34 19 34V34C10.1634 34 3 26.8366 3 18V18Z" fill="#0080FF" shape-rendering="crispEdges"/>
<path d="M19.0008 26.0042V22.9019C22.2846 22.9019 24.8337 19.6453 23.5728 16.1891C23.1101 14.9101 22.0851 13.885 20.806 13.4224C17.3499 12.1706 14.0933 14.7105 14.0933 17.9943H11C11 12.7602 16.0618 8.67812 21.5499 10.3926C23.9447 11.1455 25.8587 13.0505 26.6026 15.4453C28.317 20.9425 24.244 26.0042 19.0008 26.0042Z" fill="white"/>
<path d="M19.0099 22.911H15.9257V19.8268H19.0099V22.911Z" fill="white"/>
<path d="M15.9256 25.2876H13.549V22.9109H15.9256V25.2876Z" fill="white"/>
<path d="M13.549 22.9109H11.5624V20.9243H13.549V22.9109Z" fill="white"/>
</g>
<defs>
<filter id="filter0_ddi_815_6816" x="0" y="0" width="38" height="38" filterUnits="userSpaceOnUse" color-interpolation-filters="sRGB">
<feFlood flood-opacity="0" result="BackgroundImageFix"/>
<feColorMatrix in="SourceAlpha" type="matrix" values="0 0 0 0 0 0 0 0 0 0 0 0 0 0 0 0 0 0 127 0" result="hardAlpha"/>
<feOffset dy="1"/>
<feGaussianBlur stdDeviation="1.5"/>
<feComposite in2="hardAlpha" operator="out"/>
<feColorMatrix type="matrix" values="0 0 0 0 0 0 0 0 0 0 0 0 0 0 0 0 0 0 0.14 0"/>
<feBlend mode="normal" in2="BackgroundImageFix" result="effect1_dropShadow_815_6816"/>
<feColorMatrix in="SourceAlpha" type="matrix" values="0 0 0 0 0 0 0 0 0 0 0 0 0 0 0 0 0 0 127 0" result="hardAlpha"/>
<feOffset/>
<feGaussianBlur stdDeviation="0.5"/>
<feComposite in2="hardAlpha" operator="out"/>
<feColorMatrix type="matrix" values="0 0 0 0 0 0 0 0 0 0 0 0 0 0 0 0 0 0 0.14 0"/>
<feBlend mode="normal" in2="effect1_dropShadow_815_6816" result="effect2_dropShadow_815_6816"/>
<feBlend mode="normal" in="SourceGraphic" in2="effect2_dropShadow_815_6816" result="shape"/>
<feColorMatrix in="SourceAlpha" type="matrix" values="0 0 0 0 0 0 0 0 0 0 0 0 0 0 0 0 0 0 127 0" result="hardAlpha"/>
<feOffset dy="0.25"/>
<feGaussianBlur stdDeviation="0.75"/>
<feComposite in2="hardAlpha" operator="arithmetic" k2="-1" k3="1"/>
<feColorMatrix type="matrix" values="0 0 0 0 1 0 0 0 0 1 0 0 0 0 1 0 0 0 0.08 0"/>
<feBlend mode="normal" in2="shape" result="effect3_innerShadow_815_6816"/>
</filter>
</defs>
</svg>
