<svg viewBox="0 0 24 24" fill="none" xmlns="http://www.w3.org/2000/svg">
<path d="M19.167 0H4.83295C2.16379 0 0 2.16379 0 4.83295V19.167C0 21.8362 2.16379 24 4.83295 24H19.167C21.8362 24 24 21.8362 24 19.167V4.83295C24 2.16379 21.8362 0 19.167 0Z" fill="#25B9FF"/>
<path d="M19.3701 10.0455C18.4119 8.66729 16.7968 7.87052 15.1171 7.97819C14.3957 6.67536 13.0606 5.81399 11.4993 5.71709C10.4119 5.65248 9.31361 6.02933 8.46301 6.7615C7.88158 7.26756 7.46166 7.84898 7.20325 8.50578C7.05251 8.8934 6.70796 9.14104 6.34188 9.14104H3.76852V11.2945H6.34188C7.60163 11.2945 8.73219 10.5085 9.20594 9.29178C9.33515 8.958 9.55049 8.66729 9.87351 8.38734C10.2934 8.02126 10.8425 7.82745 11.3594 7.85975C12.1346 7.91359 12.6837 8.2689 13.0283 8.71036C13.3944 9.11951 13.5989 9.75477 13.7174 10.39C14.4065 10.1962 15.1602 10.0347 15.8816 10.1532C16.4738 10.2501 17.0229 10.5623 17.4213 11.0253C17.4859 11.1007 17.5505 11.176 17.6043 11.2622C18.1212 12.0051 18.2181 12.9203 17.8735 13.8248C17.5613 14.6646 16.4092 15.4291 15.4509 15.4291H7.95695C6.93407 15.4291 6.09423 14.6646 5.96503 13.6848H3.81159C3.95157 15.8598 5.74968 17.5825 7.95695 17.5825H15.4617C17.3136 17.5825 19.2625 16.2689 19.8977 14.5892C20.4899 13.0172 20.2961 11.3591 19.3809 10.0347L19.3701 10.0455Z" fill="white"/>
</svg>
